<svg id="Слой_1" data-name="Слой 1" xmlns="http://www.w3.org/2000/svg" viewBox="0 0 254.32 31.18"><defs><style>.cls-1{fill:#e30613;}</style></defs><path d="M31.82,28.53a5.13,5.13,0,0,1-4.74,2.61H19.73c-2.76,0-3.63-.87-4.55-2.66L.19,2.32a1.5,1.5,0,0,1,.56-2A1.42,1.42,0,0,1,1.5.1H6.87a1.49,1.49,0,0,1,1.3.77L20.36,22.43a2.39,2.39,0,0,0,2,1.46h2.08a2.33,2.33,0,0,0,2-1.46L38.87.82A1.46,1.46,0,0,1,40.18.1H45.5A1.49,1.49,0,0,1,47,1.63a1.39,1.39,0,0,1-.18.69Z"/><path d="M56.43,31.09h-4.6a1.52,1.52,0,0,1-1.5-1.5V1.5A1.52,1.52,0,0,1,51.83,0h4.6a1.5,1.5,0,0,1,1.49,1.5V29.59a1.47,1.47,0,0,1-1.45,1.5Z"/><path d="M105.69,5.8a1.5,1.5,0,0,1-1.49,1.5H71.41c-1.2,0-1.78.39-1.78,1.11v2.42c0,.73.58,1.11,1.78,1.11h26q9.28,0,9.28,7.4v4.21c0,5-3.09,7.54-9.28,7.54H64.6a1.5,1.5,0,0,1-1.5-1.5V25.34a1.5,1.5,0,0,1,1.5-1.5H97.38c1.16,0,1.74-.34,1.74-1.07V20.26c0-.73-.58-1.11-1.74-1.11H71.46c-6.23,0-9.33-2.23-9.33-6.63V7.64c0-5,3.1-7.54,9.33-7.54h32.78a1.5,1.5,0,0,1,1.5,1.5V5.8Z"/><path d="M154.38,5.8a1.5,1.5,0,0,1-1.5,1.5H120.1c-1.21,0-1.79.39-1.79,1.11v2.42c0,.73.58,1.11,1.79,1.11H146q9.28,0,9.28,7.4v4.21c0,5-3.09,7.54-9.28,7.54H113.24a1.5,1.5,0,0,1-1.5-1.5V25.34a1.5,1.5,0,0,1,1.5-1.5H146c1.16,0,1.74-.34,1.74-1.07V20.26c0-.73-.58-1.11-1.74-1.11H120.1c-6.23,0-9.33-2.23-9.33-6.63V7.64c0-5,3.1-7.54,9.33-7.54h32.78a1.5,1.5,0,0,1,1.5,1.5Z"/><path d="M254.28,29.64a1.52,1.52,0,0,1-1.5,1.5H220.43c-6.24,0-9.33-2.52-9.33-7.55V1.6A1.5,1.5,0,0,1,212.6.1h4.64a1.51,1.51,0,0,1,1.5,1.5V22.43c0,1,.58,1.46,1.74,1.46h32.34a1.5,1.5,0,0,1,1.5,1.49l0,4.26Z"/><path class="cls-1" d="M165.65,12.18a1.51,1.51,0,0,0,1.5-1.5V10c0-1.79,1.35-2.66,4.06-2.66h7.06a1.51,1.51,0,0,0,1.5-1.5V1.54a1.51,1.51,0,0,0-1.5-1.5h-7.06c-7.79,0-11.65,3.29-11.65,9.92v.72a1.5,1.5,0,0,0,1.5,1.5Z"/><path class="cls-1" d="M186.58,5.8a1.51,1.51,0,0,0,1.5,1.5h7.06c2.71,0,4.06.87,4.06,2.66v.72a1.51,1.51,0,0,0,1.5,1.5h4.64a1.5,1.5,0,0,0,1.5-1.5V10C206.84,3.38,203,0,195.19,0h-7.06a1.51,1.51,0,0,0-1.5,1.5l0,4.26Z"/><path class="cls-1" d="M179.77,25.38a1.51,1.51,0,0,0-1.5-1.5h-7.06c-2.71,0-4.06-.87-4.06-2.66V20.5a1.5,1.5,0,0,0-1.5-1.5H161a1.5,1.5,0,0,0-1.5,1.5v.77c0,6.57,3.87,9.86,11.65,9.86h7.06a1.5,1.5,0,0,0,1.5-1.5V25.38Z"/><path class="cls-1" d="M200.7,19a1.5,1.5,0,0,0-1.5,1.5v.77c0,1.74-1.35,2.66-4.06,2.66h-7.06a1.51,1.51,0,0,0-1.5,1.5v4.25a1.51,1.51,0,0,0,1.5,1.5h7.06c7.79,0,11.66-3.29,11.66-9.86V20.5a1.5,1.5,0,0,0-1.5-1.5Z"/></svg>