<svg id="Слой_1" data-name="Слой 1" xmlns="http://www.w3.org/2000/svg" viewBox="0 0 254.27 31.18"><defs><style>.cls-1{fill:#fff;}.cls-2{fill:#e30613;}</style></defs><path class="cls-1" d="M31.8,28.52a5.12,5.12,0,0,1-4.74,2.61H19.71c-2.75,0-3.62-.87-4.54-2.66L.18,2.32a1.51,1.51,0,0,1,.58-2A1.42,1.42,0,0,1,1.49.1H6.85A1.53,1.53,0,0,1,8.16.87L20.34,22.43a2.38,2.38,0,0,0,2,1.45h2.08a2.32,2.32,0,0,0,2-1.45L38.86.82A1.47,1.47,0,0,1,40.16.1h5.32A1.51,1.51,0,0,1,47,1.64a1.13,1.13,0,0,1-.19.68Z"/><path class="cls-1" d="M56.41,31.08h-4.6a1.5,1.5,0,0,1-1.5-1.49V1.5A1.51,1.51,0,0,1,51.81,0h4.6A1.5,1.5,0,0,1,57.9,1.5V29.59a1.45,1.45,0,0,1-1.45,1.49Z"/><path class="cls-1" d="M105.67,5.8a1.51,1.51,0,0,1-1.5,1.5H71.39c-1.21,0-1.79.39-1.79,1.11v2.42c0,.72.58,1.11,1.79,1.11h26q9.29,0,9.28,7.4v4.2c0,5-3.09,7.54-9.28,7.54H64.58a1.5,1.5,0,0,1-1.5-1.49V25.33a1.5,1.5,0,0,1,1.5-1.5H97.35c1.16,0,1.74-.34,1.74-1.06V20.26c0-.73-.58-1.12-1.74-1.12H71.44c-6.24,0-9.33-2.22-9.33-6.62V7.64c0-5,3.09-7.54,9.33-7.54h32.78a1.5,1.5,0,0,1,1.5,1.5V5.8Z"/><path class="cls-1" d="M154.35,5.8a1.51,1.51,0,0,1-1.5,1.5H120.07c-1.21,0-1.79.39-1.79,1.11v2.42c0,.72.58,1.11,1.79,1.11H146q9.28,0,9.29,7.4v4.2c0,5-3.1,7.54-9.29,7.54H113.21a1.5,1.5,0,0,1-1.5-1.49V25.33a1.51,1.51,0,0,1,1.5-1.5H146c1.17,0,1.75-.34,1.75-1.06V20.26c0-.73-.58-1.12-1.75-1.12H120.07c-6.23,0-9.33-2.22-9.33-6.62V7.64c0-5,3.1-7.54,9.33-7.54h32.78a1.5,1.5,0,0,1,1.5,1.5Z"/><path class="cls-2" d="M165.61,12.18a1.5,1.5,0,0,0,1.5-1.5V10c0-1.79,1.35-2.66,4.06-2.66h7.06a1.51,1.51,0,0,0,1.5-1.5V1.55a1.51,1.51,0,0,0-1.5-1.5h-7.06c-7.78,0-11.65,3.29-11.65,9.91v.72a1.5,1.5,0,0,0,1.5,1.5Z"/><path class="cls-2" d="M186.54,5.8A1.51,1.51,0,0,0,188,7.3h7.06c2.71,0,4.06.87,4.06,2.66v.72a1.5,1.5,0,0,0,1.5,1.5h4.64a1.5,1.5,0,0,0,1.5-1.5V10c0-6.58-3.87-9.91-11.65-9.91h-7.06a1.51,1.51,0,0,0-1.5,1.5l-.05,4.25Z"/><path class="cls-2" d="M179.73,25.38a1.51,1.51,0,0,0-1.5-1.5h-7.06c-2.71,0-4.06-.87-4.06-2.66V20.5a1.51,1.51,0,0,0-1.5-1.5H161a1.51,1.51,0,0,0-1.5,1.5v.77c0,6.58,3.87,9.86,11.65,9.86h7.06a1.5,1.5,0,0,0,1.5-1.5V25.38Z"/><path class="cls-2" d="M200.66,19a1.51,1.51,0,0,0-1.5,1.5v.77c0,1.74-1.35,2.66-4.06,2.66H188a1.51,1.51,0,0,0-1.5,1.5v4.25a1.51,1.51,0,0,0,1.5,1.5h7.06c7.78,0,11.65-3.29,11.65-9.86V20.5a1.51,1.51,0,0,0-1.5-1.5Z"/><path class="cls-1" d="M254.22,29.63a1.5,1.5,0,0,1-1.49,1.5H220.38c-6.23,0-9.33-2.51-9.33-7.54V1.6a1.5,1.5,0,0,1,1.5-1.5h4.64a1.5,1.5,0,0,1,1.5,1.5V22.43c0,1,.58,1.45,1.74,1.45h32.34a1.5,1.5,0,0,1,1.5,1.5l-.05,4.25Z"/></svg>